<svg width="415" height="387" viewBox="0 0 415 387" fill="none" xmlns="http://www.w3.org/2000/svg">
<path fill-rule="evenodd" clip-rule="evenodd" d="M237.735 13.4458C242.752 10.1828 248.851 10.1848 253.866 13.4512L395.108 105.43C400.383 108.865 403.655 115.383 403.655 122.456V264.01C403.655 271.084 400.383 277.601 395.108 281.036L253.872 373.011C248.853 376.28 242.751 376.28 237.732 373.012L96.486 281.036C91.2108 277.601 87.939 271.084 87.939 264.01V122.331C87.939 115.255 91.2143 108.734 96.494 105.3L237.735 13.4458Z" fill="#FECD04" stroke="#0C254C" stroke-width="21.3333" stroke-linecap="round"/>
<path d="M245.801 213.786V378.277" stroke="#0C254C" stroke-width="21.3333"/>
<path d="M245.795 213.782L87.939 110.988" stroke="#0C254C" stroke-width="21.3333"/>
<path d="M403.661 110.988L245.801 213.782" stroke="#0C254C" stroke-width="21.3333"/>
<path d="M82.3102 159.638L10 159.452" stroke="#0C254C" stroke-width="21.3333" stroke-linecap="round" stroke-linejoin="round"/>
<path d="M82.2606 240.883L10 239.796" stroke="#0C254C" stroke-width="21.3333" stroke-linecap="round" stroke-linejoin="round"/>
<path d="M82.3727 200.878L27.3945 200.402" stroke="#0C254C" stroke-width="21.3333" stroke-linecap="round" stroke-linejoin="round"/>
</svg>
