<svg width="238" height="190" viewBox="0 0 238 190" fill="none" xmlns="http://www.w3.org/2000/svg">
<path d="M35.8574 53.4863V165.182L119 189.33V75.8255L35.8574 53.4863Z" fill="#C9A378"/>
<path d="M119 189.33V75.8255L203.952 53.4863V166.086L119 189.33Z" fill="#D4B189"/>
<path d="M118.999 75.8264L86.8276 108.883L35.8564 95.1178L0.970703 85.6731L34.6499 53.1523L34.8845 53.1858L35.0186 53.2528L118.999 75.8264Z" fill="#B3906A"/>
<path d="M237.028 84.7677L203.952 94.1789L152.076 108.882L119 75.8253L119.905 75.5909L204.388 53.0508L237.028 84.7677Z" fill="#B3906A"/>
<path d="M119.435 29.8088L35.0192 53.2532H34.9522L34.8851 53.1862L3.45117 22.9095L84.8176 0.570312L119.435 29.8088Z" fill="#997755"/>
<path d="M204.388 53.052L119.905 75.5921L119 75.8266L35.0195 53.253L119.435 29.8086L204.388 53.052Z" fill="#75512D"/>
<path d="M233.007 25.3546L204.388 53.0525L119.436 29.8091L151.205 2.58008L233.007 25.3546Z" fill="#997755"/>
<path d="M54.1895 115.615L119.001 132.462L132.875 128.108V176.37L119.001 180.355L54.1895 162.069V115.615Z" fill="#997755"/>
<path d="M132.874 128.105L119 132.459V180.353L132.874 176.367V128.105Z" fill="#B3906A"/>
<path d="M119.904 30.2773V75.8264" stroke="#06092A" stroke-miterlimit="10"/>
<path d="M165.949 118.728V147.33L176.673 144.651V116.049L165.949 118.728Z" fill="#1B26AE"/>
<path d="M165.949 152.689V161.631L176.673 158.919V150.01L165.949 152.689Z" fill="#1B26AE"/>
</svg>
