<svg width="1132" height="387" viewBox="0 0 1132 387" fill="none" xmlns="http://www.w3.org/2000/svg">
<path d="M448.318 264V118.545H506.556C517.257 118.545 526.182 120.132 533.332 123.304C540.482 126.476 545.856 130.88 549.454 136.514C553.053 142.101 554.852 148.541 554.852 155.832C554.852 161.514 553.716 166.509 551.443 170.818C549.17 175.08 546.045 178.583 542.068 181.33C538.138 184.028 533.64 185.946 528.574 187.082V188.503C534.113 188.74 539.298 190.302 544.127 193.19C549.004 196.079 552.958 200.127 555.988 205.335C559.019 210.496 560.534 216.652 560.534 223.801C560.534 231.519 558.616 238.408 554.781 244.469C550.993 250.482 545.382 255.241 537.949 258.744C530.515 262.248 521.353 264 510.463 264H448.318ZM479.071 238.858H504.142C512.712 238.858 518.962 237.224 522.892 233.957C526.822 230.643 528.787 226.24 528.787 220.747C528.787 216.723 527.816 213.171 525.875 210.094C523.933 207.016 521.163 204.601 517.565 202.849C514.014 201.098 509.776 200.222 504.852 200.222H479.071V238.858ZM479.071 179.412H501.869C506.083 179.412 509.824 178.678 513.091 177.21C516.405 175.695 519.009 173.564 520.903 170.818C522.844 168.072 523.815 164.781 523.815 160.946C523.815 155.69 521.945 151.453 518.204 148.233C514.511 145.013 509.255 143.403 502.437 143.403H479.071V179.412ZM714.209 191.273C714.209 207.134 711.203 220.629 705.189 231.756C699.223 242.883 691.079 251.382 680.757 257.253C670.483 263.077 658.93 265.989 646.098 265.989C633.172 265.989 621.572 263.053 611.297 257.182C601.023 251.311 592.902 242.812 586.936 231.685C580.971 220.558 577.988 207.087 577.988 191.273C577.988 175.411 580.971 161.917 586.936 150.79C592.902 139.663 601.023 131.187 611.297 125.364C621.572 119.492 633.172 116.557 646.098 116.557C658.93 116.557 670.483 119.492 680.757 125.364C691.079 131.187 699.223 139.663 705.189 150.79C711.203 161.917 714.209 175.411 714.209 191.273ZM683.03 191.273C683.03 180.998 681.491 172.333 678.414 165.278C675.383 158.223 671.098 152.873 665.559 149.227C660.019 145.581 653.532 143.759 646.098 143.759C638.665 143.759 632.178 145.581 626.638 149.227C621.098 152.873 616.79 158.223 613.712 165.278C610.682 172.333 609.167 180.998 609.167 191.273C609.167 201.547 610.682 210.212 613.712 217.267C616.79 224.322 621.098 229.672 626.638 233.318C632.178 236.964 638.665 238.787 646.098 238.787C653.532 238.787 660.019 236.964 665.559 233.318C671.098 229.672 675.383 224.322 678.414 217.267C681.491 210.212 683.03 201.547 683.03 191.273ZM758.989 118.545L788.321 168.119H789.458L818.932 118.545H853.662L809.273 191.273L854.657 264H819.287L789.458 214.355H788.321L758.492 264H723.265L768.79 191.273L724.117 118.545H758.989ZM873.123 264V118.545H903.875V238.645H966.233V264H873.123ZM959.522 118.545H993.968L1027.14 181.188H1028.56L1061.72 118.545H1096.17L1043.12 212.58V264H1012.58V212.58L959.522 118.545Z" fill="#0C254C"/>
<path fill-rule="evenodd" clip-rule="evenodd" d="M237.735 13.4458C242.752 10.1828 248.851 10.1848 253.866 13.4512L395.108 105.43C400.383 108.865 403.655 115.383 403.655 122.456V264.01C403.655 271.084 400.383 277.601 395.108 281.036L253.872 373.011C248.853 376.28 242.751 376.28 237.732 373.012L96.486 281.036C91.2108 277.601 87.939 271.084 87.939 264.01V122.331C87.939 115.255 91.2143 108.734 96.494 105.3L237.735 13.4458Z" fill="#FECD04" stroke="#0C254C" stroke-width="21.3333" stroke-linecap="round"/>
<path d="M245.801 213.786V378.277" stroke="#0C254C" stroke-width="21.3333"/>
<path d="M245.795 213.782L87.939 110.988" stroke="#0C254C" stroke-width="21.3333"/>
<path d="M403.661 110.988L245.801 213.782" stroke="#0C254C" stroke-width="21.3333"/>
<path d="M82.3102 159.638L10 159.452" stroke="#0C254C" stroke-width="21.3333" stroke-linecap="round" stroke-linejoin="round"/>
<path d="M82.2606 240.883L10 239.796" stroke="#0C254C" stroke-width="21.3333" stroke-linecap="round" stroke-linejoin="round"/>
<path d="M82.3727 200.878L27.3945 200.402" stroke="#0C254C" stroke-width="21.3333" stroke-linecap="round" stroke-linejoin="round"/>
</svg>
